<svg width="40" height="40" viewBox="0 0 49 55" fill="none" xmlns="http://www.w3.org/2000/svg">
<path d="M30.0832 21.9167L24.4998 24.7083M24.4998 24.7083L18.9165 21.9167M24.4998 24.7083V31.6875M46.8332 13.5417L41.2498 16.3333M46.8332 13.5417L41.2498 10.75M46.8332 13.5417V20.5208M30.0832 5.16667L24.4998 2.375L18.9165 5.16667M2.1665 13.5417L7.74984 10.75M2.1665 13.5417L7.74984 16.3333M2.1665 13.5417V20.5208M24.4998 52.625L18.9165 49.8333M24.4998 52.625L30.0832 49.8333M24.4998 52.625V45.6458M7.74984 44.25L2.1665 41.4583V34.4792M41.2498 44.25L46.8332 41.4583V34.4792" stroke="#EF4680" stroke-width="4" stroke-linecap="round" stroke-linejoin="round"/>
</svg>
