<svg width="45" height="45" viewBox="0 0 66 66" fill="none" xmlns="http://www.w3.org/2000/svg">
<path d="M11 17.875H19.25V36.1075C16.665 36.7831 14.4142 38.3764 12.918 40.59C11.4218 42.8036 10.7824 45.4861 11.1191 48.1366C11.4559 50.7871 12.7459 53.2244 14.7482 54.9935C16.7505 56.7625 19.3282 57.7423 22 57.75C22.6737 57.7492 23.3459 57.6848 24.0075 57.5575C24.3935 57.6848 24.7973 57.7498 25.2038 57.75C28.1875 57.75 28.1875 55 31.1575 55C34.1275 55 34.1412 57.75 37.1112 57.75C40.0812 57.75 40.095 55 43.0788 55C46.0625 55 46.0487 57.75 49.0325 57.75C51.1775 57.75 51.7825 56.375 53.0612 55.5362C53.6557 55.1647 54.1457 54.6478 54.4849 54.0343C54.8241 53.4208 55.0014 52.731 55 52.03V15.125C55 13.3016 54.2757 11.5529 52.9864 10.2636C51.697 8.9743 49.9484 8.24997 48.125 8.24997H15.125C14.663 8.24567 14.202 8.29177 13.75 8.38747C12.1971 8.70445 10.8015 9.54822 9.7992 10.776C8.79695 12.0037 8.24968 13.5401 8.25 15.125C8.25 15.8543 8.53973 16.5538 9.05546 17.0695C9.57118 17.5852 10.2707 17.875 11 17.875ZM13.75 46.75C13.7519 45.0455 14.2818 43.3835 15.2666 41.9924C16.2515 40.6013 17.643 39.5494 19.25 38.9812C19.666 38.8313 20.0937 38.7163 20.5288 38.6375H20.7075C21.1339 38.5569 21.5662 38.5109 22 38.5C23.6317 38.5 25.2267 38.9838 26.5835 39.8903C27.9402 40.7969 28.9976 42.0853 29.622 43.5928C30.2464 45.1003 30.4098 46.7591 30.0915 48.3595C29.7732 49.9598 28.9874 51.4298 27.8336 52.5836C26.6798 53.7374 25.2098 54.5231 23.6095 54.8415C22.0092 55.1598 20.3504 54.9964 18.8429 54.372C17.3354 53.7476 16.0469 52.6901 15.1404 51.3334C14.2339 49.9767 13.75 48.3817 13.75 46.75ZM48.125 11C49.219 11 50.2682 11.4346 51.0418 12.2082C51.8154 12.9817 52.25 14.031 52.25 15.125V52.03C52.2505 52.2636 52.1914 52.4936 52.0783 52.6981C51.9652 52.9026 51.8019 53.0749 51.6037 53.1987C51.0878 53.5382 50.6044 53.9248 50.16 54.3537C49.4725 54.9725 49.4175 55 49.0325 55C48.6475 55 48.5925 55 47.9187 54.3537C47.2984 53.7014 46.5519 53.182 45.7246 52.8271C44.8973 52.4722 44.0065 52.2892 43.1063 52.2892C42.206 52.2892 41.3152 52.4722 40.4879 52.8271C39.6606 53.182 38.9141 53.7014 38.2938 54.3537C37.62 54.9725 37.5513 55 37.18 55C36.8088 55 36.7537 55 36.08 54.3537C34.8858 53.091 33.2507 52.3375 31.515 52.25C31.9462 51.4852 32.2877 50.6731 32.5325 49.83L32.615 49.5C32.6989 49.1788 32.7632 48.8527 32.8075 48.5237C32.8151 48.3955 32.8151 48.2669 32.8075 48.1387C32.902 47.6805 32.9663 47.2166 33 46.75C33.0008 45.3353 32.7252 43.934 32.1887 42.625H48.125C48.4897 42.625 48.8394 42.4801 49.0973 42.2222C49.3551 41.9644 49.5 41.6146 49.5 41.25C49.5 40.8853 49.3551 40.5356 49.0973 40.2777C48.8394 40.0198 48.4897 39.875 48.125 39.875H30.8825C30.7956 39.8671 30.7082 39.8671 30.6213 39.875C29.7096 38.7533 28.5889 37.8194 27.3213 37.125H48.125C48.4897 37.125 48.8394 36.9801 49.0973 36.7222C49.3551 36.4644 49.5 36.1146 49.5 35.75C49.5 35.3853 49.3551 35.0356 49.0973 34.7777C48.8394 34.5198 48.4897 34.375 48.125 34.375H26.125C25.7603 34.375 25.4106 34.5198 25.1527 34.7777C24.8949 35.0356 24.75 35.3853 24.75 35.75C24.7563 35.8819 24.7842 36.012 24.8325 36.135C23.9097 35.8811 22.9571 35.7517 22 35.75V15.125C22.0023 13.6987 21.6877 12.2897 21.0787 11H48.125ZM14.0525 11.1375H14.3413C14.5976 11.067 14.86 11.0209 15.125 11C16.2167 10.9973 17.2649 11.4275 18.04 12.1962C18.6085 12.7758 18.9997 13.5057 19.1675 14.3C19.2093 14.5734 19.2368 14.8487 19.25 15.125H11C10.999 14.217 11.2977 13.3341 11.8496 12.6132C12.4015 11.8923 13.1758 11.3735 14.0525 11.1375Z" fill="#F58D83"/>
<path d="M39.875 19.25H48.125C48.4897 19.25 48.8394 19.1051 49.0973 18.8473C49.3551 18.5894 49.5 18.2397 49.5 17.875C49.5 17.5103 49.3551 17.1606 49.0973 16.9027C48.8394 16.6449 48.4897 16.5 48.125 16.5H39.875C39.5103 16.5 39.1606 16.6449 38.9027 16.9027C38.6449 17.1606 38.5 17.5103 38.5 17.875C38.5 18.2397 38.6449 18.5894 38.9027 18.8473C39.1606 19.1051 39.5103 19.25 39.875 19.25Z" fill="#F58D83"/>
<path d="M39.875 24.75H48.125C48.4897 24.75 48.8394 24.6051 49.0973 24.3473C49.3551 24.0894 49.5 23.7397 49.5 23.375C49.5 23.0103 49.3551 22.6606 49.0973 22.4027C48.8394 22.1449 48.4897 22 48.125 22H39.875C39.5103 22 39.1606 22.1449 38.9027 22.4027C38.6449 22.6606 38.5 23.0103 38.5 23.375C38.5 23.7397 38.6449 24.0894 38.9027 24.3473C39.1606 24.6051 39.5103 24.75 39.875 24.75Z" fill="#F58D83"/>
<path d="M39.875 30.25H48.125C48.4897 30.25 48.8394 30.1051 49.0973 29.8473C49.3551 29.5894 49.5 29.2397 49.5 28.875C49.5 28.5103 49.3551 28.1606 49.0973 27.9027C48.8394 27.6449 48.4897 27.5 48.125 27.5H39.875C39.5103 27.5 39.1606 27.6449 38.9027 27.9027C38.6449 28.1606 38.5 28.5103 38.5 28.875C38.5 29.2397 38.6449 29.5894 38.9027 29.8473C39.1606 30.1051 39.5103 30.25 39.875 30.25Z" fill="#F58D83"/>
<path d="M27.5 30.25H33C33.7293 30.25 34.4288 29.9603 34.9445 29.4445C35.4603 28.9288 35.75 28.2293 35.75 27.5V19.25C35.75 18.5207 35.4603 17.8212 34.9445 17.3055C34.4288 16.7897 33.7293 16.5 33 16.5H27.5C26.7707 16.5 26.0712 16.7897 25.5555 17.3055C25.0397 17.8212 24.75 18.5207 24.75 19.25V27.5C24.75 28.2293 25.0397 28.9288 25.5555 29.4445C26.0712 29.9603 26.7707 30.25 27.5 30.25ZM27.5 19.25H33V27.5H27.5V19.25Z" fill="#F58D83"/>
<path d="M26.4001 46.4475C26.6562 46.1899 26.8 45.8414 26.8 45.4781C26.8 45.1149 26.6562 44.7664 26.4001 44.5088C26.2723 44.3799 26.1202 44.2776 25.9527 44.2078C25.7851 44.138 25.6054 44.1021 25.4239 44.1021C25.2424 44.1021 25.0626 44.138 24.8951 44.2078C24.7275 44.2776 24.5754 44.3799 24.4476 44.5088L21.1064 47.7125L19.5251 46.1175C19.3933 45.992 19.2381 45.8937 19.0683 45.8282C18.8985 45.7627 18.7174 45.7313 18.5355 45.7358C18.3535 45.7402 18.1742 45.7805 18.0079 45.8543C17.8415 45.928 17.6912 46.0338 17.5657 46.1656C17.4403 46.2975 17.342 46.4527 17.2765 46.6225C17.211 46.7923 17.1795 46.9734 17.184 47.1553C17.1885 47.3372 17.2287 47.5165 17.3025 47.6829C17.3763 47.8493 17.4821 47.9995 17.6139 48.125L20.1989 50.6C20.4546 50.8438 20.7943 50.9798 21.1476 50.9798C21.5009 50.9798 21.8407 50.8438 22.0964 50.6L26.4001 46.4475Z" fill="#F58D83"/>
</svg>
